<?xml version="1.0" encoding="UTF-8" standalone="no"?>
<!DOCTYPE svg PUBLIC "-//W3C//DTD SVG 1.0//EN" "http://www.w3.org/TR/2001/REC-SVG-20010904/DTD/svg10.dtd">
<svg xmlns:svg="http://www.w3.org/2000/svg" xmlns="http://www.w3.org/2000/svg" version="1.0" width="320" height="320" id="svg2">
  <defs id="defs4"/>
  <path d="M 156,118 C 150.4354,118 144.87744,118.16306 138.8125,118.5 C 129.51501,119.01653 121.88072,120.77268 116.5625,127.125 C 111.51725,133.15127 108.83687,142.4064 106.84375,157.1875 L 98.8125,157.1875 L 98.8125,162.84375 L 147.84375,162.84375 C 149.13107,168.3767 154.07702,172.49999 160,172.5 C 165.92495,172.5 170.87095,168.37948 172.15625,162.84375 L 213.625,162.84375 L 213.625,157.25 L 206.15625,157.25 C 204.13147,142.38849 201.18262,133.06849 195.875,127.0625 C 190.2898,120.7424 182.48141,119.01633 173.1875,118.5 C 167.12256,118.16306 161.5646,118 156,118 z M 156,125 C 161.42719,125 166.85439,125.16899 172.8125,125.5 C 181.51859,125.98367 186.7102,127.2576 190.625,131.6875 C 194.25681,135.79718 197.12781,143.56407 199.09375,157.21875 L 172.15625,157.1875 C 170.87095,151.65177 165.92495,147.53125 160,147.53125 C 154.07702,147.53126 149.13107,151.65455 147.84375,157.1875 L 142.3125,157.1875 C 141.28155,144.61289 138.61649,135.71765 132.5,126.1875 C 134.45625,125.85571 136.64041,125.6415 139.1875,125.5 C 145.14561,125.16899 150.57281,125 156,125 z M 125.625,128.46875 C 131.90929,137.62236 134.26765,144.97696 135.28125,157.1875 L 113.9375,157.1875 C 115.87967,143.5078 118.52328,135.7031 121.9375,131.625 C 123.03607,130.31282 124.24515,129.28294 125.625,128.46875 z M 160,152.5 C 164.14,152.5 167.5,155.86 167.5,160 C 167.5,164.14 164.14,167.5 160,167.5 C 155.86,167.5 152.5,164.14 152.5,160 C 152.5,155.86 155.86,152.5 160,152.5 z" id="path90440" style="fill:#000407;fill-opacity:1;fill-rule:evenodd;stroke:none"/>
</svg>