<?xml version="1.0" encoding="UTF-8"?>
<!DOCTYPE svg PUBLIC "-//W3C//DTD SVG 1.0//EN" "http://www.w3.org/TR/2001/REC-SVG-20010904/DTD/svg10.dtd">
<svg xmlns:svg="http://www.w3.org/2000/svg" xmlns="http://www.w3.org/2000/svg" version="1.0" width="320" height="320" id="svg2">
  <defs id="defs4"/>
  <path d="M 186.03125,69.96875 L 185.65625,105.03125 L 214,105.03125 L 214,69.96875 L 186.03125,69.96875 z M 190.96875,74.5625 L 209.40625,74.5625 L 209.03125,100.0625 L 190.96875,100.0625 L 190.96875,74.5625 z M 197.71875,108.59375 L 197.71875,126.28125 L 191.34375,126.28125 L 191.34375,191.03125 C 189.63921,192.68015 188.39706,194.80239 187.84375,197.1875 L 179.40625,197.1875 L 179.28125,202.84375 L 187.84375,202.84375 C 189.13107,208.3767 194.07702,212.49999 200,212.5 C 205.92495,212.5 210.87095,208.37948 212.15625,202.84375 L 220.46875,202.8125 L 220.46875,197.15625 L 212.15625,197.1875 C 211.56957,194.65854 210.2097,192.43634 208.34375,190.75 L 208.34375,126.28125 L 201.96875,126.28125 L 201.96875,108.59375 L 197.71875,108.59375 z M 200,192.5 C 204.14,192.5 207.5,195.86 207.5,200 C 207.5,204.14 204.14,207.5 200,207.5 C 195.86,207.5 192.5,204.14 192.5,200 C 192.5,195.86 195.86,192.5 200,192.5 z" id="path2520" style="fill:#000407;fill-opacity:1;fill-rule:evenodd;stroke:none" transform="translate(-40,-40)"/>
</svg>