<?xml version="1.0" encoding="UTF-8"?>
<!DOCTYPE svg PUBLIC "-//W3C//DTD SVG 1.0//EN" "http://www.w3.org/TR/2001/REC-SVG-20010904/DTD/svg10.dtd">
<svg xmlns:svg="http://www.w3.org/2000/svg" xmlns="http://www.w3.org/2000/svg" version="1.0" width="320" height="320" id="svg2">
  <defs id="defs4"/>
  <path d="M 214.9375,143.15625 L 209.40625,160.28125 L 181.34375,151.4375 L 166.125,197.1875 L 158.15625,197.1875 L 158.15625,202.84375 L 187.84375,202.84375 C 189.13107,208.3767 194.07702,212.49999 200,212.5 C 205.92495,212.5 210.87095,208.37948 212.15625,202.84375 L 242,202.84375 L 242,202.78125 L 242,197.1875 L 234.3125,197.1875 L 243.3125,171 L 213.375,161.5625 L 218.90625,144.4375 L 214.9375,143.15625 z M 200,192.5 C 204.14,192.5 207.5,195.86 207.5,200 C 207.5,204.14 204.14,207.5 200,207.5 C 195.86,207.5 192.5,204.14 192.5,200 C 192.5,195.86 195.86,192.5 200,192.5 z M 201.20625,134.6875 L 230.36875,105.5625 L 236.49375,146.475 L 201.20625,134.6875 z" id="path90440" style="fill:#000407;fill-opacity:1;fill-rule:evenodd;stroke:none" transform="translate(-40,-40)"/>
</svg>