<?xml version="1.0" encoding="UTF-8"?>
<!DOCTYPE svg PUBLIC "-//W3C//DTD SVG 1.0//EN" "http://www.w3.org/TR/2001/REC-SVG-20010904/DTD/svg10.dtd">
<svg xmlns:svg="http://www.w3.org/2000/svg" xmlns="http://www.w3.org/2000/svg" version="1.0" width="320" height="320" id="svg2">
  <defs id="defs4"/>
  <path d="M 181.34375,151.4375 L 166.125,197.1875 L 158.15625,197.1875 L 158.15625,202.84375 L 187.84375,202.84375 C 189.13107,208.3767 194.07702,212.49999 200,212.5 C 205.92495,212.5 210.87095,208.37948 212.15625,202.84375 L 242,202.84375 L 242,202.78125 L 242,197.1875 L 234.3125,197.1875 L 243.3125,171 L 181.34375,151.4375 z M 186.375,160.0625 L 233.53125,176.03125 L 226.3125,197.1875 L 212.15625,197.1875 C 210.87095,191.65177 205.92495,187.53125 200,187.53125 C 194.07702,187.53126 189.13107,191.65455 187.84375,197.1875 L 174.125,197.1875 L 186.375,160.0625 z M 200,192.5 C 204.14,192.5 207.5,195.86 207.5,200 C 207.5,204.14 204.14,207.5 200,207.5 C 195.86,207.5 192.5,204.14 192.5,200 C 192.5,195.86 195.86,192.5 200,192.5 z" id="path90440" style="fill:#000407;fill-opacity:1;fill-rule:evenodd;stroke:none" transform="translate(-40,-40)"/>
</svg>