<?xml version="1.0" encoding="UTF-8" standalone="no"?>
<!DOCTYPE svg PUBLIC "-//W3C//DTD SVG 1.0//EN" "http://www.w3.org/TR/2001/REC-SVG-20010904/DTD/svg10.dtd">
<svg xmlns:svg="http://www.w3.org/2000/svg" xmlns="http://www.w3.org/2000/svg" version="1.0" width="320" height="320" id="svg2">
  <defs id="defs4"/>
  <path d="M 174.9375,103.15625 L 169.40625,120.28125 L 141.34375,111.4375 L 126.125,157.1875 L 118.15625,157.1875 L 118.15625,162.84375 L 147.84375,162.84375 C 149.13107,168.3767 154.07702,172.49999 160,172.5 C 165.92495,172.5 170.87095,168.37948 172.15625,162.84375 L 202,162.84375 L 202,157.1875 L 194.3125,157.1875 L 203.3125,131 L 173.375,121.5625 L 178.90625,104.4375 L 174.9375,103.15625 z M 160,152.5 C 164.14,152.5 167.5,155.86 167.5,160 C 167.5,164.14 164.14,167.5 160,167.5 C 155.86,167.5 152.5,164.14 152.5,160 C 152.5,155.86 155.86,152.5 160,152.5 z M 162.34375,91.425 L 180.28125,82.4875 L 171.34375,64.55 L 175.81875,62.3 L 185.09375,80.3625 L 203.04375,71.4 L 205.28125,75.9 L 187.00625,84.7375 L 195.94375,102.675 L 191.79375,105.025 L 182.51875,86.9625 L 164.58125,95.9125 L 162.34375,91.425 z" id="path90440" style="fill:#000407;fill-opacity:1;fill-rule:evenodd;stroke:none"/>
</svg>