<?xml version="1.0" encoding="UTF-8" standalone="no"?>
<!-- Created with Inkscape (http://www.inkscape.org/) -->
<svg xmlns:svg="http://www.w3.org/2000/svg" xmlns="http://www.w3.org/2000/svg" version="1.0" width="400" height="400" id="svg2">
  <defs id="defs4"/>
  <path d="M 181.65,169.625 L 111.85,100.7125 L 106.75,95.65 L 103.1,89.7 L 101.6875,82.625 L 102.525,75.35 L 105.4875,68.8 L 110.375,63.5125 L 116.85,59.9375 L 124.0875,58.425 L 131.0125,59.275 L 136.8,62.6 L 141.625,67.7 L 145.9125,73.75 L 146.7375,75.0125 L 181.65,169.625 z M 204,200 C 204,202.208 202.208,204 200,204 C 197.792,204 196,202.208 196,200 C 196,197.792 197.792,196 200,196 C 202.208,196 204,197.792 204,200 z" id="path28209" style="fill:#a30075;fill-opacity:1;fill-rule:evenodd;stroke:none"/>
  <path d="M 237.40625,80.5 L 231.46875,98.625 L 227.21875,97.21875 L 197.125,187.84375 C 192.53643,188.94207 188.91165,192.58419 187.84375,197.1875 L 179.40625,197.1875 L 179.28125,202.84375 L 187.84375,202.84375 C 189.13107,208.3767 194.07702,212.49999 200,212.5 C 205.92495,212.5 210.87095,208.37948 212.15625,202.84375 L 220.48125,202.8 L 220.48125,197.14375 L 212.15625,197.1875 C 211.66675,195.07319 210.65776,193.14936 209.25,191.59375 L 239.25,101.125 L 235.5,99.9375 L 241.78125,81.96875 L 237.40625,80.5 z M 200,192.5 C 204.14,192.5 207.5,195.86 207.5,200 C 207.5,204.14 204.14,207.5 200,207.5 C 195.86,207.5 192.5,204.14 192.5,200 C 192.5,195.86 195.86,192.5 200,192.5 z M 246.8875,8.925 L 251.66875,44.89375 L 277.48125,19.175 L 246.8875,8.925 z M 250.54375,48.26875 L 224.7625,74.01875 L 255.66875,84.3625 L 250.54375,48.26875 z" id="path27763" style="fill:#000407;fill-opacity:1;fill-rule:evenodd;stroke:none"/>
</svg>