<?xml version="1.0" encoding="UTF-8" standalone="no"?>
<!-- Created with Inkscape (http://www.inkscape.org/) -->
<svg xmlns:svg="http://www.w3.org/2000/svg" xmlns="http://www.w3.org/2000/svg" version="1.0" width="400" height="400" id="svg2">
  <defs id="defs4"/>
  <path d="M 246.8875,8.925 L 251.66875,44.89375 L 277.48125,19.175 L 246.8875,8.925 z M 250.54375,48.26875 L 224.7625,74.01875 L 255.66875,84.3625 L 250.54375,48.26875 z M 237.075,81.89375 L 231.48125,98.6125 L 224.95,96.51875 L 194.48125,164.58125 L 164.7,197.175 L 156.91875,197.175 L 156.79375,202.83125 L 187.85625,202.83125 C 189.14357,208.3642 194.08952,212.48749 200.0125,212.4875 C 205.93745,212.4875 210.88345,208.36698 212.16875,202.83125 L 236.29375,202.83125 L 236.29375,197.175 L 228.5125,197.175 L 226.04375,174.83125 L 242.66875,102.20625 L 235.5125,99.925 L 241.10625,83.2375 L 237.075,81.89375 z M 229.2,105.01875 L 234.16875,106.8 L 218.95,174.83125 L 221.41875,197.175 L 212.16875,197.175 C 210.88624,191.63544 205.94017,187.4875 200.0125,187.4875 C 194.08674,187.4875 189.14072,191.63813 187.85625,197.175 L 174.2625,197.175 L 200.5125,168.8 L 229.2,105.01875 z M 207.5,200 C 207.5,204.14 204.14,207.5 200,207.5 C 195.86,207.5 192.5,204.14 192.5,200 C 192.5,195.86 195.86,192.5 200,192.5 C 204.14,192.5 207.5,195.86 207.5,200 z" id="path27763" style="fill:#000407;fill-opacity:1;fill-rule:evenodd;stroke:none"/>
  <path d="M 181.65,169.625 L 111.85,100.7125 L 106.75,95.65 L 103.1,89.7 L 101.6875,82.625 L 102.525,75.35 L 105.4875,68.8 L 110.375,63.5125 L 116.85,59.9375 L 124.0875,58.425 L 131.0125,59.275 L 136.8,62.6 L 141.625,67.7 L 145.9125,73.75 L 146.7375,75.0125 L 181.65,169.625 z M 204,200 C 204,202.208 202.208,204 200,204 C 197.792,204 196,202.208 196,200 C 196,197.792 197.792,196 200,196 C 202.208,196 204,197.792 204,200 z" id="path25338" style="fill:#a30075;fill-opacity:1;fill-rule:evenodd;stroke:none"/>
</svg>