<?xml version="1.0" encoding="UTF-8" standalone="no"?>
<!DOCTYPE svg PUBLIC "-//W3C//DTD SVG 1.0//EN" "http://www.w3.org/TR/2001/REC-SVG-20010904/DTD/svg10.dtd">
<svg xmlns:svg="http://www.w3.org/2000/svg" xmlns="http://www.w3.org/2000/svg" version="1.0" width="320" height="320" id="svg2">
  <defs id="defs4"/>
  <path d="M 182.5625,85.812497 L 176.40625,104.15625 C 172.45998,104.22166 168.87424,106.37691 165.125,109.34375 C 161.12581,112.50838 156.89661,116.83912 152.46875,121.9375 C 143.69459,132.04035 134.18927,145.10437 125.3125,157.25 L 118.15625,157.25 L 118.15625,162.90625 L 147.84375,162.90625 C 149.13107,168.4392 154.07702,172.56249 160,172.5625 C 165.92495,172.5625 170.87095,168.44198 172.15625,162.90625 L 202,162.90625 L 202,162.84375 L 202,157.25 L 194.28125,157.25 C 193.00521,145.92297 192.09609,133.87716 190.28125,124.15625 C 189.3266,119.04285 188.15867,114.58129 186.28125,111 C 184.96341,108.48615 183.04552,106.25609 180.59375,105.0625 L 186.59375,87.187497 L 182.5625,85.812497 z M 160,152.5625 C 164.14,152.5625 167.5,155.9225 167.5,160.0625 C 167.5,164.2025 164.14,167.5625 160,167.5625 C 155.86,167.5625 152.5,164.2025 152.5,160.0625 C 152.5,155.9225 155.86,152.5625 160,152.5625 z M 169.96875,74.081247 L 187.90625,65.143743 L 178.96875,47.206243 L 183.44375,44.956243 L 192.71875,63.018743 L 210.66875,54.056243 L 212.90625,58.556243 L 194.63125,67.393747 L 203.56875,85.331247 L 199.41875,87.681247 L 190.14375,69.618747 L 172.20625,78.568747 L 169.96875,74.081247 z" id="path12694" style="fill:#000407;fill-opacity:1;fill-rule:evenodd;stroke:none"/>
</svg>