<?xml version="1.0" encoding="UTF-8"?>
<!DOCTYPE svg PUBLIC "-//W3C//DTD SVG 1.0//EN" "http://www.w3.org/TR/2001/REC-SVG-20010904/DTD/svg10.dtd">
<svg xmlns:svg="http://www.w3.org/2000/svg" xmlns="http://www.w3.org/2000/svg" version="1.0" width="320" height="320" id="svg2">
  <defs id="defs4"/>
  <path d="M 222.5625,125.75 L 216.40625,144.09375 C 212.45998,144.15916 208.87424,146.31441 205.125,149.28125 C 201.12581,152.44588 196.89661,156.77662 192.46875,161.875 C 183.69459,171.97785 174.18927,185.04187 165.3125,197.1875 L 158.15625,197.1875 L 158.15625,202.84375 L 187.84375,202.84375 C 189.13107,208.3767 194.07702,212.49999 200,212.5 C 205.92495,212.5 210.87095,208.37948 212.15625,202.84375 L 242,202.84375 L 242,202.78125 L 242,197.1875 L 234.28125,197.1875 C 233.00521,185.86047 232.09609,173.81466 230.28125,164.09375 C 229.3266,158.98035 228.15867,154.51879 226.28125,150.9375 C 224.96341,148.42365 223.04552,146.19359 220.59375,145 L 226.59375,127.125 L 222.5625,125.75 z M 216.78125,151.0625 C 217.86583,151.12305 218.77627,151.73394 220.0625,154.1875 C 221.34873,156.64106 222.51419,160.59681 223.40625,165.375 C 225.0636,174.25236 225.96617,185.90684 227.21875,197.1875 L 212.15625,197.1875 C 210.87095,191.65177 205.92495,187.53125 200,187.53125 C 194.07702,187.53126 189.13107,191.65455 187.84375,197.1875 L 174,197.1875 C 181.97792,186.28608 190.24031,175.11564 197.75,166.46875 C 202.01874,161.55359 206.05177,157.45391 209.46875,154.75 C 212.88573,152.04609 215.68023,151.00161 216.78125,151.0625 z M 200,192.5 C 204.14,192.5 207.5,195.86 207.5,200 C 207.5,204.14 204.14,207.5 200,207.5 C 195.86,207.5 192.5,204.14 192.5,200 C 192.5,195.86 195.86,192.5 200,192.5 z M 223.90548,85.520979 L 212.74182,119.05534 L 238.95259,127.78096 L 250.11624,94.246589 L 223.90548,85.520979 z M 227.07021,91.844299 L 243.79292,97.411329 L 235.78785,121.45763 L 219.06515,115.89061 L 227.07021,91.844299 z" id="path90440" style="fill:#000407;fill-opacity:1;fill-rule:evenodd;stroke:none" transform="translate(-40,-40)"/>
</svg>