<?xml version="1.0" encoding="UTF-8" standalone="no"?>
<!DOCTYPE svg PUBLIC "-//W3C//DTD SVG 1.0//EN" "http://www.w3.org/TR/2001/REC-SVG-20010904/DTD/svg10.dtd">
<svg xmlns:svg="http://www.w3.org/2000/svg" xmlns="http://www.w3.org/2000/svg" version="1.0" width="320" height="320" id="svg2">
  <defs id="defs4"/>
  <path d="M 182.5625,85.733996 L 176.40625,104.07775 C 172.45998,104.14316 168.87424,106.29841 165.125,109.26525 C 161.12581,112.42988 156.89661,116.76062 152.46875,121.859 C 143.69459,131.96185 134.18927,145.02587 125.3125,157.1715 L 118.15625,157.1715 L 118.15625,162.82775 L 147.84375,162.82775 C 149.13107,168.3607 154.07702,172.48399 160,172.484 C 165.92495,172.484 170.87095,168.36348 172.15625,162.82775 L 202,162.82775 L 202,162.76525 L 202,157.1715 L 194.28125,157.1715 C 193.00521,145.84447 192.09609,133.79866 190.28125,124.07775 C 189.3266,118.96435 188.15867,114.50279 186.28125,110.9215 C 184.96341,108.40765 183.04552,106.17759 180.59375,104.984 L 186.59375,87.108996 L 182.5625,85.733996 z M 160,152.484 C 164.14,152.484 167.5,155.844 167.5,159.984 C 167.5,164.124 164.14,167.484 160,167.484 C 155.86,167.484 152.5,164.124 152.5,159.984 C 152.5,155.844 155.86,152.484 160,152.484 z M 190.8,50.840246 C 181.44334,50.840246 173.8,58.483586 173.8,67.840246 C 173.8,77.196906 181.44334,84.840246 190.8,84.840246 C 200.15666,84.840246 207.8,77.196906 207.8,67.840246 C 207.8,58.483586 200.15666,50.840246 190.8,50.840246 z" id="path12694" style="fill:#000407;fill-opacity:1;fill-rule:evenodd;stroke:none"/>
</svg>