<?xml version="1.0" encoding="UTF-8" standalone="no"?>
<!-- Created with Inkscape (http://www.inkscape.org/) -->
<svg xmlns:svg="http://www.w3.org/2000/svg" xmlns="http://www.w3.org/2000/svg" version="1.0" width="120" height="120" id="svg8708">
  <defs id="defs8710"/>
  <path d="M 60,13.5 C 50.667313,13.5 42.321037,18.960528 36.4375,27.40625 C 30.553963,35.851972 27,47.34108 27,60 C 27,72.65892 30.553963,84.148028 36.4375,92.59375 C 42.321037,101.03947 50.667313,106.5 60,106.5 C 69.332687,106.5 77.678963,101.03947 83.5625,92.59375 C 89.446037,84.148028 93,72.65892 93,60 C 93,47.34108 89.446037,35.851972 83.5625,27.40625 C 77.678963,18.960528 69.332687,13.5 60,13.5 z M 60,17.5 C 67.779313,17.5 74.942787,22.024222 80.28125,29.6875 C 85.619713,37.350778 89,48.09492 89,60 C 89,71.90508 85.619713,82.649222 80.28125,90.3125 C 74.942787,97.975778 67.779313,102.5 60,102.5 C 52.220687,102.5 45.057213,97.975778 39.71875,90.3125 C 34.380287,82.649222 31,71.90508 31,60 C 31,48.09492 34.380287,37.350778 39.71875,29.6875 C 45.057213,22.024222 52.220687,17.5 60,17.5 z M 60,23 C 56.157874,23 53,26.157874 53,30 C 53,33.132549 55.111053,35.805292 57.96875,36.6875 L 57.875,40 L 47.5,40 L 47.5,44 L 57.75,44 L 56.5625,86.65625 C 51.95481,85.706943 48.017364,82.886219 45.59375,79.03125 L 49,77.5 L 40,68 L 39,82 L 43.125,80.125 C 45.106983,84.889386 48.318646,88.494402 52.59375,90.6875 C 54.008668,91.413344 55.453844,91.896477 56.90625,92.1875 L 57.5,97 L 62.5,97 L 63.09375,92.21875 C 68.832121,91.063862 74.00958,86.717294 76.84375,80.125 L 81,82 L 80,68 L 71,77.5 L 74.375,79.03125 C 71.954147,82.885765 68.039183,85.674632 63.4375,86.625 L 62.25,44 L 72.5,44 L 72.5,40 L 62.125,40 L 62.03125,36.6875 C 64.888947,35.805292 67,33.132549 67,30 C 67,26.157874 63.842126,23 60,23 z M 60,27 C 61.677874,27 63,28.322126 63,30 C 63,31.677874 61.677874,33 60,33 C 58.322126,33 57,31.677874 57,30 C 57,28.322126 58.322126,27 60,27 z" id="path8720"/>
</svg>