<?xml version="1.0" encoding="UTF-8"?>
<!DOCTYPE svg PUBLIC "-//W3C//DTD SVG 1.0//EN" "http://www.w3.org/TR/2001/REC-SVG-20010904/DTD/svg10.dtd">
<svg xmlns:svg="http://www.w3.org/2000/svg" xmlns="http://www.w3.org/2000/svg" version="1.0" width="320" height="320" id="svg2">
  <defs id="defs4"/>
  <svg:path d="M 131.60087,181.31159 L 69.97299,257.62001 L 65.44288,263.19827 L 59.885447,267.42201 L 52.986033,269.53125 L 45.663807,269.42153 L 38.851616,267.12524 L 33.104189,262.78791 L 28.902861,256.70061 L 26.677963,249.64945 L 26.834933,242.67425 L 29.567773,236.58472 L 34.162548,231.27636 L 39.756076,226.40835 L 40.930254,225.46186 L 131.60087,181.31159 z M 159.60212,156.05108 C 161.79918,155.83146 163.76054,157.43633 163.98017,159.63337 C 164.19979,161.83043 162.59492,163.79179 160.39788,164.01142 C 158.20082,164.23104 156.23946,162.62617 156.01983,160.42913 C 155.80021,158.23207 157.40508,156.27071 159.60212,156.05108 z" id="path28209" style="fill:#a30075;fill-opacity:1;fill-rule:evenodd;stroke:none"/>
<path d="M 179.34375,93.031245 L 172.96875,111.59375 C 171.03562,111.12203 169.05583,110.81337 167.0625,110.6875 C 166.25699,110.63664 165.4353,110.618 164.625,110.625 C 158.95287,110.67398 153.21912,112.14868 148,115.21875 C 133.33853,123.84315 127.65756,142.03098 134.1875,157.28125 L 126.125,157.28125 L 126.125,162.9375 L 147.84375,162.9375 C 149.13107,168.47045 154.07702,172.59374 160,172.59375 C 165.92495,172.59375 170.87095,168.47323 172.15625,162.9375 L 204.4375,162.96875 L 204.4375,157.3125 L 195.84375,157.28125 C 200.08274,147.50938 199.41981,136.51993 193.875,127.09375 C 189.89063,120.32032 183.88931,115.45812 177.0625,112.84375 L 183.375,94.374995 L 179.34375,93.031245 z M 165.375,117.5625 C 174.32202,117.68499 182.96381,122.36035 187.84375,130.65625 C 192.88887,139.23295 192.9162,148.72013 187.96875,157.28125 L 172.15625,157.25 C 170.87095,151.71427 165.92495,147.59375 160,147.59375 C 154.07702,147.59376 149.13107,151.71705 147.84375,157.25 L 142,157.25 C 134.79003,144.65057 139.01481,128.63099 151.5625,121.25 C 155.90797,118.69384 160.68847,117.49834 165.375,117.5625 z M 160,152.59375 C 164.14,152.59375 167.5,155.95375 167.5,160.09375 C 167.5,164.23375 164.14,167.59375 160,167.59375 C 155.86,167.59375 152.5,164.23375 152.5,160.09375 C 152.5,155.95375 155.86,152.59375 160,152.59375 z M 166.75,81.299997 L 184.6875,72.362497 L 175.75,54.424994 L 180.225,52.174994 L 189.5,70.237497 L 207.45,61.274994 L 209.6875,65.774997 L 191.4125,74.612497 L 200.35,92.549995 L 196.2,94.899995 L 186.925,76.837497 L 168.9875,85.787497 L 166.75,81.299997 z" id="path4420" style="fill:#000407;fill-opacity:1;fill-rule:evenodd;stroke:none"/>
</svg>