<?xml version="1.0" encoding="UTF-8"?>
<!DOCTYPE svg PUBLIC "-//W3C//DTD SVG 1.0//EN" "http://www.w3.org/TR/2001/REC-SVG-20010904/DTD/svg10.dtd">
<svg xmlns:svg="http://www.w3.org/2000/svg" xmlns="http://www.w3.org/2000/svg" version="1.0" width="320" height="320" id="svg2">
  <defs id="defs4"/>
  <svg:path d="M 131.60087,181.31159 L 69.97299,257.62001 L 65.44288,263.19827 L 59.885447,267.42201 L 52.986033,269.53125 L 45.663807,269.42153 L 38.851616,267.12524 L 33.104189,262.78791 L 28.902861,256.70061 L 26.677963,249.64945 L 26.834933,242.67425 L 29.567773,236.58472 L 34.162548,231.27636 L 39.756076,226.40835 L 40.930254,225.46186 L 131.60087,181.31159 z M 159.60212,156.05108 C 161.79918,155.83146 163.76054,157.43633 163.98017,159.63337 C 164.19979,161.83043 162.59492,163.79179 160.39788,164.01142 C 158.20082,164.23104 156.23946,162.62617 156.01983,160.42913 C 155.80021,158.23207 157.40508,156.27071 159.60212,156.05108 z" id="path28209" style="fill:#a30075;fill-opacity:1;fill-rule:evenodd;stroke:none"/>
<path d="M 197,42.000005 L 191.40625,58.718755 L 184.875,56.625005 L 154.40625,124.6875 L 124.625,157.28125 L 116.84375,157.28125 L 116.71875,162.9375 L 147.78125,162.9375 C 149.06857,168.47045 154.01452,172.59374 159.9375,172.59375 C 165.86245,172.59375 170.80845,168.47323 172.09375,162.9375 L 196.21875,162.9375 L 196.21875,157.28125 L 188.4375,157.28125 L 185.96875,134.9375 L 202.59375,62.312505 L 195.4375,60.031255 L 201.03125,43.343755 L 197,42.000005 z M 189.125,65.125005 L 194.09375,66.906255 L 178.875,134.9375 L 181.34375,157.28125 L 172.09375,157.28125 C 170.81124,151.74169 165.86517,147.59375 159.9375,147.59375 C 154.01174,147.59375 149.06572,151.74438 147.78125,157.28125 L 134.1875,157.28125 L 160.4375,128.90625 L 189.125,65.125005 z M 167.425,160.10625 C 167.425,164.24625 164.065,167.60625 159.925,167.60625 C 155.785,167.60625 152.425,164.24625 152.425,160.10625 C 152.425,155.96625 155.785,152.60625 159.925,152.60625 C 164.065,152.60625 167.425,155.96625 167.425,160.10625 z M 184.46875,30.331255 L 202.40625,21.393755 L 193.46875,3.4562546 L 197.94375,1.2062546 L 207.21875,19.268755 L 225.16875,10.306255 L 227.40625,14.806255 L 209.13125,23.643755 L 218.06875,41.581255 L 213.91875,43.931255 L 204.64375,25.868755 L 186.70625,34.818755 L 184.46875,30.331255 z" id="path27763" style="fill:#000407;fill-opacity:1;fill-rule:evenodd;stroke:none"/>
</svg>