<?xml version="1.0" encoding="UTF-8"?>
<!DOCTYPE svg PUBLIC "-//W3C//DTD SVG 1.0//EN" "http://www.w3.org/TR/2001/REC-SVG-20010904/DTD/svg10.dtd">
<svg xmlns:svg="http://www.w3.org/2000/svg" xmlns="http://www.w3.org/2000/svg" version="1.0" width="320" height="320" id="svg2">
  <defs id="defs4"/>
  <svg:path d="M 131.60087,181.31159 L 69.97299,257.62001 L 65.44288,263.19827 L 59.885447,267.42201 L 52.986033,269.53125 L 45.663807,269.42153 L 38.851616,267.12524 L 33.104189,262.78791 L 28.902861,256.70061 L 26.677963,249.64945 L 26.834933,242.67425 L 29.567773,236.58472 L 34.162548,231.27636 L 39.756076,226.40835 L 40.930254,225.46186 L 131.60087,181.31159 z M 159.60212,156.05108 C 161.79918,155.83146 163.76054,157.43633 163.98017,159.63337 C 164.19979,161.83043 162.59492,163.79179 160.39788,164.01142 C 158.20082,164.23104 156.23946,162.62617 156.01983,160.42913 C 155.80021,158.23207 157.40508,156.27071 159.60212,156.05108 z" id="path28209" style="fill:#a30075;fill-opacity:1;fill-rule:evenodd;stroke:none"/>
<path d="M 183.1125,68.15275 C 173.75584,68.15275 166.1125,75.796093 166.1125,85.15275 C 166.1125,94.509407 173.75584,102.15275 183.1125,102.15275 C 192.46916,102.15275 200.1125,94.509407 200.1125,85.15275 C 200.1125,75.796093 192.46916,68.15275 183.1125,68.15275 z M 183.1125,73.15275 C 189.76384,73.15275 195.1125,78.501407 195.1125,85.15275 C 195.1125,91.804093 189.76384,97.15275 183.1125,97.15275 C 176.46116,97.15275 171.1125,91.804093 171.1125,85.15275 C 171.1125,78.501407 176.46116,73.15275 183.1125,73.15275 z M 174.9375,103.14025 L 169.40625,120.26525 L 141.34375,111.4215 L 126.125,157.1715 L 118.15625,157.1715 L 118.15625,159.99963 L 118.15625,162.82775 L 147.84375,162.82775 C 149.13107,168.3607 154.07702,172.48399 160,172.484 C 165.92495,172.484 170.87095,168.36348 172.15625,162.82775 L 202,162.82775 L 202,157.1715 L 194.3125,157.1715 L 203.3125,130.984 L 173.375,121.5465 L 178.90625,104.4215 L 174.9375,103.14025 z M 146.375,120.0465 L 193.53125,136.01525 L 186.3125,157.1715 L 172.15625,157.1715 C 170.87095,151.63577 165.92495,147.51525 160,147.51525 C 154.07702,147.51526 149.13107,151.63855 147.84375,157.1715 L 134.125,157.1715 L 146.375,120.0465 z M 160,152.484 C 164.14,152.484 167.5,155.844 167.5,159.984 C 167.5,164.124 164.14,167.484 160,167.484 C 155.86,167.484 152.5,164.124 152.5,159.984 C 152.5,155.844 155.86,152.484 160,152.484 z" id="path27763" style="fill:#000407;fill-opacity:1;fill-rule:evenodd;stroke:none"/>
</svg>