<?xml version="1.0" encoding="UTF-8"?>
<!DOCTYPE svg PUBLIC "-//W3C//DTD SVG 1.0//EN" "http://www.w3.org/TR/2001/REC-SVG-20010904/DTD/svg10.dtd">
<svg xmlns:svg="http://www.w3.org/2000/svg" xmlns="http://www.w3.org/2000/svg" version="1.0" width="320" height="320" id="svg2">
  <defs id="defs4"/>
  <svg:path d="M 131.60087,181.31159 L 69.97299,257.62001 L 65.44288,263.19827 L 59.885447,267.42201 L 52.986033,269.53125 L 45.663807,269.42153 L 38.851616,267.12524 L 33.104189,262.78791 L 28.902861,256.70061 L 26.677963,249.64945 L 26.834933,242.67425 L 29.567773,236.58472 L 34.162548,231.27636 L 39.756076,226.40835 L 40.930254,225.46186 L 131.60087,181.31159 z M 159.60212,156.05108 C 161.79918,155.83146 163.76054,157.43633 163.98017,159.63337 C 164.19979,161.83043 162.59492,163.79179 160.39788,164.01142 C 158.20082,164.23104 156.23946,162.62617 156.01983,160.42913 C 155.80021,158.23207 157.40508,156.27071 159.60212,156.05108 z" id="path28209" style="fill:#a30075;fill-opacity:1;fill-rule:evenodd;stroke:none"/>
<path d="M 222.5625,125.75 L 216.40625,144.09375 C 212.45998,144.15916 208.87424,146.31441 205.125,149.28125 C 201.12581,152.44588 196.89661,156.77662 192.46875,161.875 C 183.69459,171.97785 174.18927,185.04187 165.3125,197.1875 L 158.15625,197.1875 L 158.15625,202.84375 L 187.84375,202.84375 C 189.13107,208.3767 194.07702,212.49999 200,212.5 C 205.92495,212.5 210.87095,208.37948 212.15625,202.84375 L 242,202.84375 L 242,202.78125 L 242,197.1875 L 234.28125,197.1875 C 233.00521,185.86047 232.09609,173.81466 230.28125,164.09375 C 229.3266,158.98035 228.15867,154.51879 226.28125,150.9375 C 224.96341,148.42365 223.04552,146.19359 220.59375,145 L 226.59375,127.125 L 222.5625,125.75 z M 216.78125,151.0625 C 217.86583,151.12305 218.77627,151.73394 220.0625,154.1875 C 221.34873,156.64106 222.51419,160.59681 223.40625,165.375 C 225.0636,174.25236 225.96617,185.90684 227.21875,197.1875 L 212.15625,197.1875 C 210.87095,191.65177 205.92495,187.53125 200,187.53125 C 194.07702,187.53126 189.13107,191.65455 187.84375,197.1875 L 174,197.1875 C 181.97792,186.28608 190.24031,175.11564 197.75,166.46875 C 202.01874,161.55359 206.05177,157.45391 209.46875,154.75 C 212.88573,152.04609 215.68023,151.00161 216.78125,151.0625 z M 200,192.5 C 204.14,192.5 207.5,195.86 207.5,200 C 207.5,204.14 204.14,207.5 200,207.5 C 195.86,207.5 192.5,204.14 192.5,200 C 192.5,195.86 195.86,192.5 200,192.5 z M 210.25,117.91875 L 236.375,92.281254 L 241.1625,128.24375 L 210.25,117.91875 M 218.40625,115.9375 C 224.20833,117.88542 230.01042,119.83333 235.8125,121.78125 C 234.875,115.04167 233.9375,108.30208 233,101.5625 C 228.13542,106.35417 223.27083,111.14583 218.40625,115.9375 z" id="path90440" style="fill:#000407;fill-opacity:1;fill-rule:evenodd;stroke:none" transform="translate(-40,-40)"/>
</svg>