<?xml version="1.0" encoding="UTF-8"?>
<!DOCTYPE svg PUBLIC "-//W3C//DTD SVG 1.0//EN" "http://www.w3.org/TR/2001/REC-SVG-20010904/DTD/svg10.dtd">
<svg xmlns:svg="http://www.w3.org/2000/svg" xmlns="http://www.w3.org/2000/svg" version="1.0" width="320" height="320" id="svg2">
  <defs id="defs4"/>
  <svg:path d="M 131.60087,181.31159 L 69.97299,257.62001 L 65.44288,263.19827 L 59.885447,267.42201 L 52.986033,269.53125 L 45.663807,269.42153 L 38.851616,267.12524 L 33.104189,262.78791 L 28.902861,256.70061 L 26.677963,249.64945 L 26.834933,242.67425 L 29.567773,236.58472 L 34.162548,231.27636 L 39.756076,226.40835 L 40.930254,225.46186 L 131.60087,181.31159 z M 159.60212,156.05108 C 161.79918,155.83146 163.76054,157.43633 163.98017,159.63337 C 164.19979,161.83043 162.59492,163.79179 160.39788,164.01142 C 158.20082,164.23104 156.23946,162.62617 156.01983,160.42913 C 155.80021,158.23207 157.40508,156.27071 159.60212,156.05108 z" id="path28209" style="fill:#a30075;fill-opacity:1;fill-rule:evenodd;stroke:none"/>
<path d="M 179.34375,92.921492 L 172.96875,111.484 C 171.03562,111.01228 169.05583,110.70362 167.0625,110.57775 C 166.25699,110.52689 165.4353,110.50825 164.625,110.51525 C 158.95287,110.56423 153.21912,112.03893 148,115.109 C 133.33853,123.7334 127.65756,141.92123 134.1875,157.1715 L 126.125,157.1715 L 126.125,162.82775 L 147.84375,162.82775 C 149.13107,168.3607 154.07702,172.48399 160,172.484 C 165.92495,172.484 170.87095,168.36348 172.15625,162.82775 L 204.4375,162.859 L 204.4375,157.20275 L 195.84375,157.1715 C 200.08274,147.39963 199.41981,136.41018 193.875,126.984 C 189.89063,120.21057 183.88931,115.34837 177.0625,112.734 L 183.375,94.265242 L 179.34375,92.921492 z M 160,152.484 C 164.14,152.484 167.5,155.844 167.5,159.984 C 167.5,164.124 164.14,167.484 160,167.484 C 155.86,167.484 152.5,164.124 152.5,159.984 C 152.5,155.844 155.86,152.484 160,152.484 z M 187.58125,57.996491 C 178.22459,57.996491 170.58125,65.639834 170.58125,74.996492 C 170.58125,84.353152 178.22459,91.996492 187.58125,91.996492 C 196.93791,91.996492 204.58125,84.353152 204.58125,74.996492 C 204.58125,65.639834 196.93791,57.996491 187.58125,57.996491 z" id="path4420" style="fill:#000407;fill-opacity:1;fill-rule:evenodd;stroke:none"/>
</svg>