<?xml version="1.0" encoding="UTF-8"?>
<!DOCTYPE svg PUBLIC "-//W3C//DTD SVG 1.0//EN" "http://www.w3.org/TR/2001/REC-SVG-20010904/DTD/svg10.dtd">
<svg xmlns:svg="http://www.w3.org/2000/svg" xmlns="http://www.w3.org/2000/svg" version="1.0" width="320" height="320" id="svg2">
  <defs id="defs4"/>
  <svg:path d="M 131.60087,181.31159 L 69.97299,257.62001 L 65.44288,263.19827 L 59.885447,267.42201 L 52.986033,269.53125 L 45.663807,269.42153 L 38.851616,267.12524 L 33.104189,262.78791 L 28.902861,256.70061 L 26.677963,249.64945 L 26.834933,242.67425 L 29.567773,236.58472 L 34.162548,231.27636 L 39.756076,226.40835 L 40.930254,225.46186 L 131.60087,181.31159 z M 159.60212,156.05108 C 161.79918,155.83146 163.76054,157.43633 163.98017,159.63337 C 164.19979,161.83043 162.59492,163.79179 160.39788,164.01142 C 158.20082,164.23104 156.23946,162.62617 156.01983,160.42913 C 155.80021,158.23207 157.40508,156.27071 159.60212,156.05108 z" id="path28209" style="fill:#a30075;fill-opacity:1;fill-rule:evenodd;stroke:none"/>
<path d="M 156,118 C 150.4354,118 144.87744,118.16306 138.8125,118.5 C 129.51501,119.01653 121.88072,120.77268 116.5625,127.125 C 111.51725,133.15127 108.83687,142.4064 106.84375,157.1875 L 98.8125,157.1875 L 98.8125,162.84375 L 147.84375,162.84375 C 149.13107,168.3767 154.07702,172.49999 160,172.5 C 165.92495,172.5 170.87095,168.37948 172.15625,162.84375 L 213.625,162.84375 L 213.625,157.25 L 206.15625,157.25 C 204.13147,142.38849 201.18262,133.06849 195.875,127.0625 C 190.2898,120.7424 182.48141,119.01633 173.1875,118.5 C 167.12256,118.16306 161.5646,118 156,118 z M 125.625,128.46875 C 131.90929,137.62236 134.26765,144.97696 135.28125,157.1875 L 113.9375,157.1875 C 115.87967,143.5078 118.52328,135.7031 121.9375,131.625 C 123.03607,130.31282 124.24515,129.28294 125.625,128.46875 z M 160,152.5 C 164.14,152.5 167.5,155.86 167.5,160 C 167.5,164.14 164.14,167.5 160,167.5 C 155.86,167.5 152.5,164.14 152.5,160 C 152.5,155.86 155.86,152.5 160,152.5 z" id="path12402" style="fill:#000407;fill-opacity:1;fill-rule:evenodd;stroke:none"/>
</svg>