<?xml version="1.0" encoding="UTF-8"?>
<!DOCTYPE svg PUBLIC "-//W3C//DTD SVG 1.0//EN" "http://www.w3.org/TR/2001/REC-SVG-20010904/DTD/svg10.dtd">
<svg xmlns:svg="http://www.w3.org/2000/svg" xmlns="http://www.w3.org/2000/svg" version="1.0" width="320" height="320" id="svg2">
  <defs id="defs4"/>
  <svg:path d="M 131.60087,181.31159 L 69.97299,257.62001 L 65.44288,263.19827 L 59.885447,267.42201 L 52.986033,269.53125 L 45.663807,269.42153 L 38.851616,267.12524 L 33.104189,262.78791 L 28.902861,256.70061 L 26.677963,249.64945 L 26.834933,242.67425 L 29.567773,236.58472 L 34.162548,231.27636 L 39.756076,226.40835 L 40.930254,225.46186 L 131.60087,181.31159 z M 159.60212,156.05108 C 161.79918,155.83146 163.76054,157.43633 163.98017,159.63337 C 164.19979,161.83043 162.59492,163.79179 160.39788,164.01142 C 158.20082,164.23104 156.23946,162.62617 156.01983,160.42913 C 155.80021,158.23207 157.40508,156.27071 159.60212,156.05108 z" id="path28209" style="fill:#a30075;fill-opacity:1;fill-rule:evenodd;stroke:none"/>
<path d="M 126.625,76.34375 L 122,147.21875 L 113.84375,147.21875 L 113.84375,152.875 L 137.84375,152.875 C 139.13107,158.40795 144.07702,162.53124 150,162.53125 C 155.92495,162.53125 160.87095,158.41073 162.15625,152.875 L 186.15625,152.875 L 186.15625,147.21875 L 178,147.21875 L 173.03125,76.34375 L 126.625,76.34375 z M 150,142.53125 C 154.14,142.53125 157.5,145.89125 157.5,150.03125 C 157.5,154.17125 154.14,157.53125 150,157.53125 C 145.86,157.53125 142.5,154.17125 142.5,150.03125 C 142.5,145.89125 145.86,142.53125 150,142.53125 z" transform="translate(10,10)" id="path2558" style="fill:#000407;fill-opacity:1;fill-rule:evenodd;stroke:none"/>
</svg>