<?xml version="1.0" encoding="UTF-8"?>
<!DOCTYPE svg PUBLIC "-//W3C//DTD SVG 1.0//EN" "http://www.w3.org/TR/2001/REC-SVG-20010904/DTD/svg10.dtd">
<svg xmlns:svg="http://www.w3.org/2000/svg" xmlns="http://www.w3.org/2000/svg" version="1.0" width="320" height="320" id="svg2">
  <defs id="defs4"/>
  <svg:path d="M 131.60087,181.31159 L 69.97299,257.62001 L 65.44288,263.19827 L 59.885447,267.42201 L 52.986033,269.53125 L 45.663807,269.42153 L 38.851616,267.12524 L 33.104189,262.78791 L 28.902861,256.70061 L 26.677963,249.64945 L 26.834933,242.67425 L 29.567773,236.58472 L 34.162548,231.27636 L 39.756076,226.40835 L 40.930254,225.46186 L 131.60087,181.31159 z M 159.60212,156.05108 C 161.79918,155.83146 163.76054,157.43633 163.98017,159.63337 C 164.19979,161.83043 162.59492,163.79179 160.39788,164.01142 C 158.20082,164.23104 156.23946,162.62617 156.01983,160.42913 C 155.80021,158.23207 157.40508,156.27071 159.60212,156.05108 z" id="path28209" style="fill:#a30075;fill-opacity:1;fill-rule:evenodd;stroke:none"/>
<path d="M 186.1875,70 L 185.8125,105.09375 L 214.1875,105.09375 L 214.1875,70 L 186.1875,70 z M 191.125,74.59375 L 209.5625,74.59375 L 209.21875,100.125 L 191.125,100.125 L 191.125,74.59375 z M 197.875,108.625 L 197.875,126.34375 L 176.625,126.34375 L 172,197.21875 L 163.84375,197.21875 L 163.84375,202.875 L 187.84375,202.875 C 189.13107,208.40795 194.07702,212.53124 200,212.53125 C 205.92495,212.53125 210.87095,208.41073 212.15625,202.875 L 236.15625,202.875 L 236.15625,197.21875 L 228,197.21875 L 223.03125,126.34375 L 202.125,126.34375 L 202.125,108.625 L 197.875,108.625 z M 183.34375,133.4375 L 216.65625,133.4375 L 221.25,197.21875 L 212.15625,197.21875 C 210.87095,191.68302 205.92495,187.5625 200,187.5625 C 194.07702,187.56251 189.13107,191.6858 187.84375,197.21875 L 178.75,197.21875 L 183.34375,133.4375 z M 200,192.53125 C 204.14,192.53125 207.5,195.89125 207.5,200.03125 C 207.5,204.17125 204.14,207.53125 200,207.53125 C 195.86,207.53125 192.5,204.17125 192.5,200.03125 C 192.5,195.89125 195.86,192.53125 200,192.53125 z" id="path2558" style="fill:#000407;fill-opacity:1;fill-rule:evenodd;stroke:none" transform="translate(-40,-40)"/>
</svg>