<?xml version="1.0" encoding="UTF-8"?>
<!DOCTYPE svg PUBLIC "-//W3C//DTD SVG 1.0//EN" "http://www.w3.org/TR/2001/REC-SVG-20010904/DTD/svg10.dtd">
<svg xmlns:svg="http://www.w3.org/2000/svg" xmlns="http://www.w3.org/2000/svg" version="1.0" width="320" height="320" id="svg2">
  <defs id="defs4"/>
  <svg:path d="M 131.60087,181.31159 L 69.97299,257.62001 L 65.44288,263.19827 L 59.885447,267.42201 L 52.986033,269.53125 L 45.663807,269.42153 L 38.851616,267.12524 L 33.104189,262.78791 L 28.902861,256.70061 L 26.677963,249.64945 L 26.834933,242.67425 L 29.567773,236.58472 L 34.162548,231.27636 L 39.756076,226.40835 L 40.930254,225.46186 L 131.60087,181.31159 z M 159.60212,156.05108 C 161.79918,155.83146 163.76054,157.43633 163.98017,159.63337 C 164.19979,161.83043 162.59492,163.79179 160.39788,164.01142 C 158.20082,164.23104 156.23946,162.62617 156.01983,160.42913 C 155.80021,158.23207 157.40508,156.27071 159.60212,156.05108 z" id="path28209" style="fill:#a30075;fill-opacity:1;fill-rule:evenodd;stroke:none"/>
<path d="M 186.03125,69.96875 L 185.65625,105.03125 L 214,105.03125 L 214,69.96875 L 186.03125,69.96875 z M 190.96875,74.5625 L 209.40625,74.5625 L 209.03125,100.0625 L 190.96875,100.0625 L 190.96875,74.5625 z M 197.71875,108.59375 L 197.71875,126.28125 L 191.34375,126.28125 L 191.34375,191.03125 C 189.63921,192.68015 188.39706,194.80239 187.84375,197.1875 L 179.40625,197.1875 L 179.28125,202.84375 L 187.84375,202.84375 C 189.13107,208.3767 194.07702,212.49999 200,212.5 C 205.92495,212.5 210.87095,208.37948 212.15625,202.84375 L 220.46875,202.8125 L 220.46875,197.15625 L 212.15625,197.1875 C 211.56957,194.65854 210.2097,192.43634 208.34375,190.75 L 208.34375,126.28125 L 201.96875,126.28125 L 201.96875,108.59375 L 197.71875,108.59375 z M 200,192.5 C 204.14,192.5 207.5,195.86 207.5,200 C 207.5,204.14 204.14,207.5 200,207.5 C 195.86,207.5 192.5,204.14 192.5,200 C 192.5,195.86 195.86,192.5 200,192.5 z" id="path2520" style="fill:#000407;fill-opacity:1;fill-rule:evenodd;stroke:none" transform="translate(-40,-40)"/>
</svg>