<?xml version="1.0" encoding="UTF-8" standalone="no"?>
<!-- Created with Inkscape (http://www.inkscape.org/) -->
<svg xmlns:svg="http://www.w3.org/2000/svg" xmlns="http://www.w3.org/2000/svg" version="1.0" width="300" height="300" id="svg2">
  <defs id="defs4"/>
  <path d="M 131.24378,119.88872 L 61.343728,51.051272 L 56.243728,46.001272 L 52.556228,40.051272 L 51.143728,32.988772 L 51.968728,25.713772 L 54.918828,19.151272 L 59.781228,13.851272 L 66.268728,10.276272 L 73.518828,8.751272 L 80.443828,9.601272 L 86.218728,12.901272 L 91.043728,18.001272 L 95.356228,24.063772 L 96.181228,25.313772 L 131.24378,119.88872 z M 154,150 C 154,152.208 152.208,154 150,154 C 147.792,154 146,152.208 146,150 C 146,147.792 147.792,146 150,146 C 152.208,146 154,147.792 154,150 z" id="path10928" style="fill:#a30075;fill-opacity:1;fill-rule:evenodd;stroke:none"/>
  <path d="M 128.83138,178.58872 L 137.34378,153.78872 L 116.43133,138.91372 L 141.94378,138.91372 L 150.09378,114.45122 L 157.89388,138.91372 L 183.75628,138.91372 L 162.85628,154.13872 L 170.65638,178.58872 L 150.09378,163.36372 L 128.83138,178.58872 z M 157,150 C 157,153.864 153.864,157 150,157 C 146.136,157 143,153.864 143,150 C 143,146.136 146.136,143 150,143 C 153.864,143 157,146.136 157,150 z" id="path12984" style="fill:#000407;fill-opacity:1;fill-rule:evenodd;stroke:none"/>
</svg>