<?xml version="1.0" encoding="UTF-8" standalone="no"?>
<!DOCTYPE svg PUBLIC "-//W3C//DTD SVG 1.0//EN" "http://www.w3.org/TR/2001/REC-SVG-20010904/DTD/svg10.dtd">
<svg xmlns:svg="http://www.w3.org/2000/svg" xmlns="http://www.w3.org/2000/svg" version="1.0" width="320" height="320" id="svg2">
  <defs id="defs4"/>
  <path d="M 197,42.000005 L 191.40625,58.718755 L 184.875,56.625005 L 154.40625,124.6875 L 124.625,157.28125 L 116.84375,157.28125 L 116.71875,162.9375 L 147.78125,162.9375 C 149.06857,168.47045 154.01452,172.59374 159.9375,172.59375 C 165.86245,172.59375 170.80845,168.47323 172.09375,162.9375 L 196.21875,162.9375 L 196.21875,157.28125 L 188.4375,157.28125 L 185.96875,134.9375 L 202.59375,62.312505 L 195.4375,60.031255 L 201.03125,43.343755 L 197,42.000005 z M 167.425,160.10625 C 167.425,164.24625 164.065,167.60625 159.925,167.60625 C 155.785,167.60625 152.425,164.24625 152.425,160.10625 C 152.425,155.96625 155.785,152.60625 159.925,152.60625 C 164.065,152.60625 167.425,155.96625 167.425,160.10625 z M 184.46875,30.331255 L 202.40625,21.393755 L 193.46875,3.4562546 L 197.94375,1.2062546 L 207.21875,19.268755 L 225.16875,10.306255 L 227.40625,14.806255 L 209.13125,23.643755 L 218.06875,41.581255 L 213.91875,43.931255 L 204.64375,25.868755 L 186.70625,34.818755 L 184.46875,30.331255 z" id="path27763" style="fill:#000407;fill-opacity:1;fill-rule:evenodd;stroke:none"/>
</svg>