<?xml version="1.0" encoding="UTF-8"?>
<!DOCTYPE svg PUBLIC "-//W3C//DTD SVG 1.0//EN" "http://www.w3.org/TR/2001/REC-SVG-20010904/DTD/svg10.dtd">
<svg xmlns:svg="http://www.w3.org/2000/svg" xmlns="http://www.w3.org/2000/svg" version="1.0" width="320" height="320" id="svg2">
  <defs id="defs4"/>
  <path d="M 237.075,81.89375 L 231.48125,98.6125 L 224.95,96.51875 L 194.48125,164.58125 L 164.7,197.175 L 156.91875,197.175 L 156.79375,202.83125 L 187.85625,202.83125 C 189.14357,208.3642 194.08952,212.48749 200.0125,212.4875 C 205.93745,212.4875 210.88345,208.36698 212.16875,202.83125 L 236.29375,202.83125 L 236.29375,197.175 L 228.5125,197.175 L 226.04375,174.83125 L 242.66875,102.20625 L 235.5125,99.925 L 241.10625,83.2375 L 237.075,81.89375 z M 229.2,105.01875 L 234.16875,106.8 L 218.95,174.83125 L 221.41875,197.175 L 212.16875,197.175 C 210.88624,191.63544 205.94017,187.4875 200.0125,187.4875 C 194.08674,187.4875 189.14072,191.63813 187.85625,197.175 L 174.2625,197.175 L 200.5125,168.8 L 229.2,105.01875 z M 207.5,200 C 207.5,204.14 204.14,207.5 200,207.5 C 195.86,207.5 192.5,204.14 192.5,200 C 192.5,195.86 195.86,192.5 200,192.5 C 204.14,192.5 207.5,195.86 207.5,200 z M 258.13125,85.068748 L 251.93125,44.493748 L 222.59365,73.493748 L 258.13125,85.068748 z M 251.93125,78.231248 L 231.71875,71.006248 L 248.36875,54.256248 L 251.93125,78.231248 z" id="path27763" style="fill:#000407;fill-opacity:1;fill-rule:evenodd;stroke:none" transform="translate(-40,-40)"/>
</svg>