<?xml version="1.0" encoding="UTF-8" standalone="no"?>
<!-- Created with Inkscape (http://www.inkscape.org/) -->
<svg xmlns:svg="http://www.w3.org/2000/svg" xmlns="http://www.w3.org/2000/svg" version="1.0" width="100" height="100" id="svg2">
  <defs id="defs4"/>
  <path d="M 47.51875,76.925 L 47.51875,52.5125 L 23.05625,52.5125 L 23.05625,47.5125 L 47.51875,47.5125 L 47.51875,23.075 L 52.48125,23.075 L 52.48125,47.5125 L 76.94375,47.5125 L 76.94375,52.5125 L 52.48125,52.5125 L 52.48125,76.925 L 47.51875,76.925 z M 72.33125,32.3 L 71.79375,34.425 L 70.33125,36.1125 L 68.28125,36.8875 L 66.08125,36.625 L 64.26875,35.375 L 63.24375,33.4 L 63.24375,31.2 L 64.26875,29.225 L 66.08125,27.975 L 68.28125,27.7125 L 70.33125,28.4875 L 71.79375,30.15 L 72.33125,32.3 z M 36.88125,32.3 L 36.36875,34.425 L 34.90625,36.1125 L 32.83125,36.8875 L 30.65625,36.625 L 28.81875,35.375 L 27.79375,33.4 L 27.79375,31.2 L 28.81875,29.225 L 30.65625,27.975 L 32.83125,27.7125 L 34.90625,28.4875 L 36.36875,30.15 L 36.88125,32.3 z M 36.88125,67.725 L 36.36875,69.9 L 34.90625,71.55 L 32.83125,72.2875 L 30.65625,72.05 L 28.81875,70.775 L 27.79375,68.85 L 27.79375,66.625 L 28.81875,64.7 L 30.65625,63.45 L 32.83125,63.1875 L 34.90625,63.9625 L 36.36875,65.575 L 36.88125,67.725 z M 72.33125,67.725 L 71.79375,69.9 L 70.33125,71.55 L 68.28125,72.2875 L 66.08125,72.05 L 64.26875,70.775 L 63.24375,68.85 L 63.24375,66.625 L 64.26875,64.7 L 66.08125,63.45 L 68.28125,63.1875 L 70.33125,63.9625 L 71.79375,65.575 L 72.33125,67.725 z" id="path2828" style="fill:#000000;fill-opacity:1;fill-rule:evenodd;stroke:none"/>
</svg>