<?xml version="1.0" encoding="UTF-8" standalone="no"?>
<!DOCTYPE svg PUBLIC "-//W3C//DTD SVG 1.0//EN" "http://www.w3.org/TR/2001/REC-SVG-20010904/DTD/svg10.dtd">
<svg xmlns:svg="http://www.w3.org/2000/svg" xmlns="http://www.w3.org/2000/svg" version="1.0" width="320" height="320" id="svg2">
  <defs id="defs4"/>
  <path d="M 197.41875,40.4875 L 191.48125,58.6125 L 187.23125,57.20625 L 157.1375,147.83125 C 152.54893,148.92957 148.92415,152.57169 147.85625,157.175 L 139.41875,157.175 L 139.29375,162.83125 L 147.85625,162.83125 C 149.14357,168.3642 154.08952,172.48749 160.0125,172.4875 C 165.93745,172.4875 170.88345,168.36698 172.16875,162.83125 L 180.49375,162.7875 L 180.49375,157.13125 L 172.16875,157.175 C 171.67925,155.06069 170.67026,153.13686 169.2625,151.58125 L 199.2625,61.1125 L 195.5125,59.925 L 201.79375,41.95625 L 197.41875,40.4875 z M 160.0125,152.4875 C 164.1525,152.4875 167.5125,155.8475 167.5125,159.9875 C 167.5125,164.1275 164.1525,167.4875 160.0125,167.4875 C 155.8725,167.4875 152.5125,164.1275 152.5125,159.9875 C 152.5125,155.8475 155.8725,152.4875 160.0125,152.4875 z M 206,5.6875 C 196.64334,5.6875 189,13.330843 189,22.6875 C 189,32.044157 196.64334,39.6875 206,39.6875 C 215.35666,39.6875 223,32.044157 223,22.6875 C 223,13.330843 215.35666,5.6875001 206,5.6875 z M 206,10.6875 C 212.65134,10.6875 218,16.036157 218,22.6875 C 218,29.338843 212.65134,34.6875 206,34.6875 C 199.34866,34.6875 194,29.338843 194,22.6875 C 194,16.036157 199.34866,10.6875 206,10.6875 z" id="path27763" style="fill:#000407;fill-opacity:1;fill-rule:evenodd;stroke:none"/>
</svg>