<?xml version="1.0" encoding="UTF-8" standalone="no"?>
<!DOCTYPE svg PUBLIC "-//W3C//DTD SVG 1.0//EN" "http://www.w3.org/TR/2001/REC-SVG-20010904/DTD/svg10.dtd">
<svg xmlns:svg="http://www.w3.org/2000/svg" xmlns="http://www.w3.org/2000/svg" version="1.0" width="320" height="320" id="svg2">
  <defs id="defs4"/>
  <path d="M 197.34375,40.593749 L 191.40625,58.718749 L 187.15625,57.312499 L 157.0625,147.9375 C 152.47393,149.03582 148.84915,152.67794 147.78125,157.28125 L 139.34375,157.28125 L 139.21875,162.9375 L 147.78125,162.9375 C 149.06857,168.47045 154.01452,172.59374 159.9375,172.59375 C 165.86245,172.59375 170.80845,168.47323 172.09375,162.9375 L 180.41875,162.89375 L 180.41875,157.2375 L 172.09375,157.28125 C 171.60425,155.16694 170.59526,153.24311 169.1875,151.6875 L 199.1875,61.218749 L 195.4375,60.031249 L 201.71875,42.062499 L 197.34375,40.593749 z M 159.9375,152.59375 C 164.0775,152.59375 167.4375,155.95375 167.4375,160.09375 C 167.4375,164.23375 164.0775,167.59375 159.9375,167.59375 C 155.7975,167.59375 152.4375,164.23375 152.4375,160.09375 C 152.4375,155.95375 155.7975,152.59375 159.9375,152.59375 z M 184.61875,30.274994 L 202.55625,21.337494 L 193.61875,3.399994 L 198.09375,1.149994 L 207.36875,19.212494 L 225.31875,10.249994 L 227.55625,14.749994 L 209.28125,23.587494 L 218.21875,41.524994 L 214.06875,43.874994 L 204.79375,25.812494 L 186.85625,34.762494 L 184.61875,30.274994 z" id="path13045" style="fill:#000407;fill-opacity:1;fill-rule:evenodd;stroke:none"/>
</svg>