<?xml version="1.0" encoding="UTF-8" standalone="no"?>
<!DOCTYPE svg PUBLIC "-//W3C//DTD SVG 1.0//EN" "http://www.w3.org/TR/2001/REC-SVG-20010904/DTD/svg10.dtd">
<svg xmlns:svg="http://www.w3.org/2000/svg" xmlns="http://www.w3.org/2000/svg" version="1.0" width="320" height="320" id="svg2">
  <defs id="defs4"/>
  <path d="M 179.34375,93.031245 L 172.96875,111.59375 C 171.03562,111.12203 169.05583,110.81337 167.0625,110.6875 C 166.25699,110.63664 165.4353,110.618 164.625,110.625 C 158.95287,110.67398 153.21912,112.14868 148,115.21875 C 133.33853,123.84315 127.65756,142.03098 134.1875,157.28125 L 126.125,157.28125 L 126.125,162.9375 L 147.84375,162.9375 C 149.13107,168.47045 154.07702,172.59374 160,172.59375 C 165.92495,172.59375 170.87095,168.47323 172.15625,162.9375 L 204.4375,162.96875 L 204.4375,157.3125 L 195.84375,157.28125 C 200.08274,147.50938 199.41981,136.51993 193.875,127.09375 C 189.89063,120.32032 183.88931,115.45812 177.0625,112.84375 L 183.375,94.374995 L 179.34375,93.031245 z M 160,152.59375 C 164.14,152.59375 167.5,155.95375 167.5,160.09375 C 167.5,164.23375 164.14,167.59375 160,167.59375 C 155.86,167.59375 152.5,164.23375 152.5,160.09375 C 152.5,155.95375 155.86,152.59375 160,152.59375 z M 166.75,81.299997 L 184.6875,72.362497 L 175.75,54.424994 L 180.225,52.174994 L 189.5,70.237497 L 207.45,61.274994 L 209.6875,65.774997 L 191.4125,74.612497 L 200.35,92.549995 L 196.2,94.899995 L 186.925,76.837497 L 168.9875,85.787497 L 166.75,81.299997 z" id="path4420" style="fill:#000407;fill-opacity:1;fill-rule:evenodd;stroke:none"/>
</svg>