<?xml version="1.0" encoding="UTF-8"?>
<!DOCTYPE svg PUBLIC "-//W3C//DTD SVG 1.0//EN" "http://www.w3.org/TR/2001/REC-SVG-20010904/DTD/svg10.dtd">
<svg xmlns:svg="http://www.w3.org/2000/svg" xmlns="http://www.w3.org/2000/svg" version="1.0" width="320" height="320" id="svg2">
  <defs id="defs4"/>
  <path d="M 204.625,150.5625 C 198.95287,150.61148 193.21912,152.08618 188,155.15625 C 173.33853,163.78065 167.65756,181.96848 174.1875,197.21875 L 166.125,197.21875 L 166.125,202.875 L 187.84375,202.875 C 189.13107,208.40795 194.07702,212.53124 200,212.53125 C 205.92495,212.53125 210.87095,208.41073 212.15625,202.875 L 244.4375,202.90625 L 244.4375,197.25 L 235.84375,197.21875 C 240.08274,187.44688 239.41981,176.45743 233.875,167.03125 C 228.02725,157.09007 217.80259,151.30319 207.0625,150.625 C 206.25699,150.57414 205.4353,150.5555 204.625,150.5625 z M 205.375,157.5 C 214.32202,157.62249 222.96381,162.29785 227.84375,170.59375 C 232.88887,179.17045 232.9162,188.65763 227.96875,197.21875 L 212.15625,197.1875 C 210.87095,191.65177 205.92495,187.53125 200,187.53125 C 194.07702,187.53126 189.13107,191.65455 187.84375,197.1875 L 182,197.1875 C 174.79003,184.58807 179.01481,168.56849 191.5625,161.1875 C 195.90797,158.63134 200.68847,157.43584 205.375,157.5 z M 200,192.53125 C 204.14,192.53125 207.5,195.89125 207.5,200.03125 C 207.5,204.17125 204.14,207.53125 200,207.53125 C 195.86,207.53125 192.5,204.17125 192.5,200.03125 C 192.5,195.89125 195.86,192.53125 200,192.53125 z" id="path93160" style="fill:#000407;fill-opacity:1;fill-rule:evenodd;stroke:none" transform="translate(-40,-40)"/>
</svg>