<?xml version="1.0" encoding="UTF-8" standalone="no"?>
<!DOCTYPE svg PUBLIC "-//W3C//DTD SVG 1.0//EN" "http://www.w3.org/TR/2001/REC-SVG-20010904/DTD/svg10.dtd">
<svg xmlns:svg="http://www.w3.org/2000/svg" xmlns="http://www.w3.org/2000/svg" version="1.0" width="320" height="320" id="svg2">
  <defs id="defs4"/>
  <path d="M 179.34375,92.921492 L 172.96875,111.484 C 171.03562,111.01228 169.05583,110.70362 167.0625,110.57775 C 166.25699,110.52689 165.4353,110.50825 164.625,110.51525 C 158.95287,110.56423 153.21912,112.03893 148,115.109 C 133.33853,123.7334 127.65756,141.92123 134.1875,157.1715 L 126.125,157.1715 L 126.125,162.82775 L 147.84375,162.82775 C 149.13107,168.3607 154.07702,172.48399 160,172.484 C 165.92495,172.484 170.87095,168.36348 172.15625,162.82775 L 204.4375,162.859 L 204.4375,157.20275 L 195.84375,157.1715 C 200.08274,147.39963 199.41981,136.41018 193.875,126.984 C 189.89063,120.21057 183.88931,115.34837 177.0625,112.734 L 183.375,94.265242 L 179.34375,92.921492 z M 165.375,117.45275 C 174.32202,117.57524 182.96381,122.2506 187.84375,130.5465 C 192.88887,139.1232 192.9162,148.61038 187.96875,157.1715 L 172.15625,157.14025 C 170.87095,151.60452 165.92495,147.484 160,147.484 C 154.07702,147.48401 149.13107,151.6073 147.84375,157.14025 L 142,157.14025 C 134.79003,144.54082 139.01481,128.52124 151.5625,121.14025 C 155.90797,118.58409 160.68847,117.38859 165.375,117.45275 z M 160,152.484 C 164.14,152.484 167.5,155.844 167.5,159.984 C 167.5,164.124 164.14,167.484 160,167.484 C 155.86,167.484 152.5,164.124 152.5,159.984 C 152.5,155.844 155.86,152.484 160,152.484 z M 187.58125,57.996491 C 178.22459,57.996491 170.58125,65.639834 170.58125,74.996492 C 170.58125,84.353152 178.22459,91.996492 187.58125,91.996492 C 196.93791,91.996492 204.58125,84.353152 204.58125,74.996492 C 204.58125,65.639834 196.93791,57.996491 187.58125,57.996491 z M 187.58125,62.996491 C 194.23259,62.996491 199.58125,68.345148 199.58125,74.996492 C 199.58125,81.647832 194.23259,86.996492 187.58125,86.996492 C 180.92991,86.996492 175.58125,81.647832 175.58125,74.996492 C 175.58125,68.345148 180.92991,62.996491 187.58125,62.996491 z" id="path4420" style="fill:#000407;fill-opacity:1;fill-rule:evenodd;stroke:none"/>
</svg>