<?xml version="1.0" encoding="UTF-8"?>
<!DOCTYPE svg PUBLIC "-//W3C//DTD SVG 1.0//EN" "http://www.w3.org/TR/2001/REC-SVG-20010904/DTD/svg10.dtd">
<svg xmlns:svg="http://www.w3.org/2000/svg" xmlns="http://www.w3.org/2000/svg" version="1.0" width="320" height="320" id="svg2">
  <defs id="defs4"/>
  <path d="M 219.34375,132.96875 L 212.96875,151.53125 C 211.03562,151.05953 209.05583,150.75087 207.0625,150.625 C 206.25699,150.57414 205.4353,150.5555 204.625,150.5625 C 198.95287,150.61148 193.21912,152.08618 188,155.15625 C 173.33853,163.78065 167.65756,181.96848 174.1875,197.21875 L 166.125,197.21875 L 166.125,202.875 L 187.84375,202.875 C 189.13107,208.40795 194.07702,212.53124 200,212.53125 C 205.92495,212.53125 210.87095,208.41073 212.15625,202.875 L 244.4375,202.90625 L 244.4375,197.25 L 235.84375,197.21875 C 240.08274,187.44688 239.41981,176.45743 233.875,167.03125 C 229.89063,160.25782 223.88931,155.39562 217.0625,152.78125 L 223.375,134.3125 L 219.34375,132.96875 z M 200,192.53125 C 204.14,192.53125 207.5,195.89125 207.5,200.03125 C 207.5,204.17125 204.14,207.53125 200,207.53125 C 195.86,207.53125 192.5,204.17125 192.5,200.03125 C 192.5,195.89125 195.86,192.53125 200,192.53125 z M 220.74923,92.802231 L 209.58557,126.33659 L 235.79634,135.06221 L 246.95999,101.52784 L 220.74923,92.802231 z" id="path4452" style="fill:#000407;fill-opacity:1;fill-rule:evenodd;stroke:none" transform="translate(-40,-40)"/>
</svg>