<?xml version="1.0" encoding="UTF-8" standalone="no"?>
<!DOCTYPE svg PUBLIC "-//W3C//DTD SVG 1.0//EN" "http://www.w3.org/TR/2001/REC-SVG-20010904/DTD/svg10.dtd">
<svg xmlns:svg="http://www.w3.org/2000/svg" xmlns="http://www.w3.org/2000/svg" version="1.0" width="320" height="320" id="svg2">
  <defs id="defs4"/>
  <path d="M 126.625,76.34375 L 122,147.21875 L 113.84375,147.21875 L 113.84375,152.875 L 137.84375,152.875 C 139.13107,158.40795 144.07702,162.53124 150,162.53125 C 155.92495,162.53125 160.87095,158.41073 162.15625,152.875 L 186.15625,152.875 L 186.15625,147.21875 L 178,147.21875 L 173.03125,76.34375 L 126.625,76.34375 z M 150,142.53125 C 154.14,142.53125 157.5,145.89125 157.5,150.03125 C 157.5,154.17125 154.14,157.53125 150,157.53125 C 145.86,157.53125 142.5,154.17125 142.5,150.03125 C 142.5,145.89125 145.86,142.53125 150,142.53125 z" transform="translate(10,10)" id="path2558" style="fill:#000407;fill-opacity:1;fill-rule:evenodd;stroke:none"/>
</svg>