<?xml version="1.0" encoding="UTF-8"?>
<!DOCTYPE svg PUBLIC "-//W3C//DTD SVG 1.0//EN" "http://www.w3.org/TR/2001/REC-SVG-20010904/DTD/svg10.dtd">
<svg xmlns:svg="http://www.w3.org/2000/svg" xmlns="http://www.w3.org/2000/svg" version="1.0" width="320" height="320" id="svg2">
  <defs id="defs4"/>
  <path d="M 200,192.53125 C 204.14,192.53125 207.5,195.89125 207.5,200.03125 C 207.5,204.17125 204.14,207.53125 200,207.53125 C 195.86,207.53125 192.5,204.17125 192.5,200.03125 C 192.5,195.89125 195.86,192.53125 200,192.53125 z M 197.875,108.625 L 197.875,126.34375 L 176.625,126.34375 L 172,197.21875 L 163.84375,197.21875 L 163.84375,202.875 L 187.84375,202.875 C 189.13107,208.40795 194.07702,212.53124 200,212.53125 C 205.92495,212.53125 210.87095,208.41073 212.15625,202.875 L 236.15625,202.875 L 236.15625,197.21875 L 228,197.21875 L 223.03125,126.34375 L 202.125,126.34375 L 202.125,108.625 L 197.875,108.625 z M 200.38014,67.851727 L 181.85918,104.81563 L 218.07798,104.81208 L 200.38014,67.851727 z" id="path4819" style="fill:#000407;fill-opacity:1;fill-rule:evenodd;stroke:none" transform="translate(-40,-40)"/>
</svg>