<?xml version="1.0" encoding="UTF-8"?>
<!DOCTYPE svg PUBLIC "-//W3C//DTD SVG 1.0//EN" "http://www.w3.org/TR/2001/REC-SVG-20010904/DTD/svg10.dtd">
<svg xmlns:svg="http://www.w3.org/2000/svg" xmlns="http://www.w3.org/2000/svg" version="1.0" width="320" height="320" id="svg2">
  <defs id="defs4"/>
  <path d="M 176.625,126.34375 L 172,197.21875 L 163.84375,197.21875 L 163.84375,202.875 L 187.84375,202.875 C 189.13107,208.40795 194.07702,212.53124 200,212.53125 C 205.92495,212.53125 210.87095,208.41073 212.15625,202.875 L 236.15625,202.875 L 236.15625,197.21875 L 228,197.21875 L 223.03125,126.34375 L 176.625,126.34375 z M 183.34375,133.4375 L 216.65625,133.4375 L 221.25,197.21875 L 212.15625,197.21875 C 210.87095,191.68302 205.92495,187.5625 200,187.5625 C 194.07702,187.56251 189.13107,191.6858 187.84375,197.21875 L 178.75,197.21875 L 183.34375,133.4375 z M 200,192.53125 C 204.14,192.53125 207.5,195.89125 207.5,200.03125 C 207.5,204.17125 204.14,207.53125 200,207.53125 C 195.86,207.53125 192.5,204.17125 192.5,200.03125 C 192.5,195.89125 195.86,192.53125 200,192.53125 z" id="path2558" style="fill:#000407;fill-opacity:1;fill-rule:evenodd;stroke:none" transform="translate(-40,-40)"/>
</svg>