<?xml version="1.0" encoding="UTF-8" standalone="no"?>
<!DOCTYPE svg PUBLIC "-//W3C//DTD SVG 1.0//EN" "http://www.w3.org/TR/2001/REC-SVG-20010904/DTD/svg10.dtd">
<svg xmlns:svg="http://www.w3.org/2000/svg" xmlns="http://www.w3.org/2000/svg" version="1.0" width="500" height="200" id="svg17711">
  <defs id="defs17713"/>
  <g id="layer1">
    <path d="M 336.619,117.725 L 299.219,117.725 M 280.519,117.725 L 243.119,117.725 M 224.419,117.725 L 186.994,117.725 M 168.281,117.725 L 130.881,117.725 M 112.181,117.725 L 74.781,117.725 M 56.081,117.725 L 37.381,117.725 L 37.381,82.275 L 56.081,82.275 M 74.781,82.275 L 112.181,82.275 M 130.881,82.275 L 168.281,82.275 M 186.994,82.275 L 224.419,82.275 M 243.119,82.275 L 280.519,82.275 M 299.219,82.275 L 336.619,82.275 M 355.319,82.275 L 374.019,82.275 L 374.019,46.85 L 462.619,100 L 374.019,153.15 L 374.019,117.725 L 355.319,117.725" id="path17695" style="fill:none;stroke:#a30075;stroke-width:4.375;stroke-linecap:butt;stroke-linejoin:miter;stroke-miterlimit:10;stroke-dasharray:none;stroke-opacity:1"/>
  </g>
</svg>