<?xml version="1.0" encoding="UTF-8" standalone="no"?>
<!-- Created with Inkscape (http://www.inkscape.org/) -->
<svg xmlns:svg="http://www.w3.org/2000/svg" xmlns="http://www.w3.org/2000/svg" version="1.0" width="120" height="120" id="svg2">
  <defs id="defs4"/>
  <path d="M 5.6,63.5375 L 5.6,56.4625 L 28.2875,56.4625 L 27.925,44.4125 L 35.0125,44.4125 L 35.0125,56.4625 L 56.275,56.4625 L 56.275,33.0625 L 63.3625,33.0625 L 63.3625,56.4625 L 84.625,56.4625 L 84.625,44.4125 L 91.7,44.4125 L 91.7,56.4625 L 114.4,56.4625 L 114.4,63.5375 L 91.7,63.5375 L 91.7,75.5875 L 84.625,75.5875 L 84.625,63.5375 L 63.3625,63.5375 L 63.0125,86.9375 L 56.275,86.9375 L 56.275,63.5375 L 35.0125,63.5375 L 35.0125,75.5875 L 27.925,75.5875 L 28.2875,63.5375 L 5.6,63.5375 z" id="path10125" style="fill:#000000;fill-opacity:1;fill-rule:evenodd;stroke:none"/>
</svg>