<?xml version="1.0" encoding="UTF-8" standalone="no"?>
<!-- Created with Inkscape (http://www.inkscape.org/) -->
<svg xmlns:svg="http://www.w3.org/2000/svg" xmlns="http://www.w3.org/2000/svg" version="1.0" width="140" height="140" id="svg2">
  <defs id="defs4"/>
  <path d="M 87.84375,8.9125 L 73.65625,51.44375 L 24.375,34.75625 L 38.21875,67.35 L 30.40625,67.35 L 30.40625,73.0375 L 57.875,73.0375 C 59.235102,78.4683 64.149526,82.50625 70,82.50625 C 75.850474,82.50625 80.764898,78.4683 82.125,73.0375 L 129.625,73.0375 L 129.625,67.35 L 122.21875,67.35 L 78.59375,52.85 L 92.78125,10.31875 L 87.84375,8.9125 z M 70,62.50625 C 74.14,62.50625 77.5,65.86625 77.5,70.00625 C 77.5,74.14625 74.14,77.50625 70,77.50625 C 65.86,77.50625 62.5,74.14625 62.5,70.00625 C 62.5,65.86625 65.86,62.50625 70,62.50625 z" id="path2748" style="fill:#000000;fill-opacity:1;fill-rule:evenodd;stroke:none"/>
</svg>