<?xml version="1.0" encoding="UTF-8" standalone="no"?>
<!-- Created with Inkscape (http://www.inkscape.org/) -->
<svg xmlns:svg="http://www.w3.org/2000/svg" xmlns="http://www.w3.org/2000/svg" version="1.0" width="140" height="140" id="svg3425">
  <defs id="defs3427"/>
  <path d="M 218,541 C 218,563.64367 191.5848,582 159,582 C 126.4152,582 100,563.64367 100,541 C 100,518.35633 126.4152,500 159,500 C 191.5848,500 218,518.35633 218,541 z" transform="translate(-89,-471)" id="path2621" style="fill:#81c3e2"/>
  <path d="M 67.9375,26.875 C 67.448188,27.366821 67.056371,28.335697 67.0625,29.03125 C 67.068629,29.726803 67.479459,30.676667 67.96875,31.15625 C 68.458041,31.635833 69.379185,32.002573 70.0625,32 C 70.745815,31.997427 71.698188,31.616821 72.1875,31.125 C 72.676812,30.633179 73.068629,29.664303 73.0625,28.96875 C 73.056371,28.273197 72.645541,27.323333 72.15625,26.84375 C 71.666959,26.364167 70.745815,25.997427 70.0625,26 C 69.379185,26.002573 68.426812,26.383179 67.9375,26.875 z M 48.3125,29.21875 C 47.826785,29.710579 47.433177,30.652523 47.4375,31.34375 C 47.441823,32.034977 47.854459,32.989167 48.34375,33.46875 C 48.833041,33.948333 49.754185,34.315073 50.4375,34.3125 C 51.120815,34.309927 52.073188,33.929321 52.5625,33.4375 C 53.051812,32.945679 53.443629,31.976803 53.4375,31.28125 C 53.431371,30.585697 53.020541,29.635833 52.53125,29.15625 C 52.041959,28.676667 51.122597,28.305636 50.4375,28.3125 C 49.752403,28.319364 48.798215,28.726921 48.3125,29.21875 z M 87.53125,29.21875 C 87.041938,29.710571 86.650121,30.679447 86.65625,31.375 C 86.662379,32.070553 87.073209,33.020417 87.5625,33.5 C 88.051791,33.979583 88.968592,34.344581 89.65625,34.34375 C 90.343908,34.342919 91.32318,33.964229 91.8125,33.46875 C 92.30182,32.973271 92.662346,32.004506 92.65625,31.3125 C 92.650154,30.620494 92.27057,29.670675 91.78125,29.1875 C 91.29193,28.704325 90.343908,28.339404 89.65625,28.34375 C 88.968592,28.348096 88.020562,28.726929 87.53125,29.21875 z M 29.96875,36.46875 C 29.48125,36.95625 29.089427,37.902523 29.09375,38.59375 C 29.098073,39.284977 29.512519,40.234798 30,40.71875 C 30.487481,41.202702 31.406843,41.596245 32.09375,41.59375 C 32.780657,41.591255 33.733035,41.179329 34.21875,40.6875 C 34.704465,40.195671 35.098073,39.253727 35.09375,38.5625 C 35.089427,37.871273 34.676791,36.917083 34.1875,36.4375 C 33.698209,35.957917 32.777065,35.591177 32.09375,35.59375 C 31.410435,35.596323 30.45625,35.98125 29.96875,36.46875 z M 105.875,36.53125 C 105.3875,37.01875 104.99568,37.965023 105,38.65625 C 105.00432,39.347477 105.41877,40.297298 105.90625,40.78125 C 106.39373,41.265202 107.31309,41.658745 108,41.65625 C 108.68691,41.653755 109.63929,41.241829 110.125,40.75 C 110.61071,40.258171 111.00432,39.316227 111,38.625 C 110.99568,37.933773 110.58304,36.979583 110.09375,36.5 C 109.60446,36.020417 108.68331,35.653677 108,35.65625 C 107.31669,35.658823 106.3625,36.04375 105.875,36.53125 z M 15.1875,49.4375 C 14.701785,49.929329 14.308177,50.871273 14.3125,51.5625 C 14.316823,52.253727 14.729459,53.207917 15.21875,53.6875 C 15.708041,54.167083 16.629185,54.533823 17.3125,54.53125 C 17.995815,54.528677 18.95,54.14375 19.4375,53.65625 C 19.925,53.16875 20.316823,52.222477 20.3125,51.53125 C 20.308177,50.840023 19.893731,49.890202 19.40625,49.40625 C 18.918769,48.922298 17.999407,48.528755 17.3125,48.53125 C 16.625593,48.533745 15.673215,48.945671 15.1875,49.4375 z M 120.625,49.53125 C 120.13929,50.023079 119.74568,50.965023 119.75,51.65625 C 119.75432,52.347477 120.16696,53.301667 120.65625,53.78125 C 121.14554,54.260833 122.06669,54.627573 122.75,54.625 C 123.43331,54.622427 124.3875,54.2375 124.875,53.75 C 125.3625,53.2625 125.75432,52.316227 125.75,51.625 C 125.74568,50.933773 125.33123,49.983952 124.84375,49.5 C 124.35627,49.016048 123.43691,48.622505 122.75,48.625 C 122.06309,48.627495 121.11071,49.039421 120.625,49.53125 z M 8.875,67.84375 C 8.3875,68.33125 7.9956768,69.277523 8,69.96875 C 8.0043232,70.659977 8.4187692,71.609798 8.90625,72.09375 C 9.3937308,72.577702 10.313093,72.971245 11,72.96875 C 11.686907,72.966255 12.639285,72.554329 13.125,72.0625 C 13.610715,71.570671 14.004323,70.628727 14,69.9375 C 13.995677,69.246273 13.583041,68.292083 13.09375,67.8125 C 12.604459,67.332917 11.683315,66.966177 11,66.96875 C 10.316685,66.971323 9.3625,67.35625 8.875,67.84375 z M 126.875,67.875 C 126.38569,68.366821 125.99387,69.335697 126,70.03125 C 126.00613,70.726803 126.41696,71.676667 126.90625,72.15625 C 127.39554,72.635833 128.31669,73.002573 129,73 C 129.68331,72.997427 130.63569,72.616821 131.125,72.125 C 131.61431,71.633179 132.00613,70.664303 132,69.96875 C 131.99387,69.273197 131.58304,68.323333 131.09375,67.84375 C 130.60446,67.364167 129.68331,66.997427 129,67 C 128.31669,67.002573 127.36431,67.383179 126.875,67.875 z M 15.15625,86.28125 C 14.66875,86.76875 14.276927,87.715023 14.28125,88.40625 C 14.285573,89.097477 14.700019,90.047298 15.1875,90.53125 C 15.674981,91.015202 16.594343,91.408745 17.28125,91.40625 C 17.968157,91.403755 18.920535,90.991829 19.40625,90.5 C 19.891965,90.008171 20.285573,89.066227 20.28125,88.375 C 20.276927,87.683773 19.864291,86.729583 19.375,86.25 C 18.885709,85.770417 17.964565,85.403677 17.28125,85.40625 C 16.597935,85.408823 15.64375,85.79375 15.15625,86.28125 z M 120.5625,86.3125 C 120.07502,86.803663 119.7144,87.749842 119.71875,88.4375 C 119.7231,89.125158 120.10625,90.075 120.59375,90.5625 C 121.08125,91.05 122.02752,91.441823 122.71875,91.4375 C 123.40998,91.433177 124.35804,91.023079 124.84375,90.53125 C 125.32946,90.039421 125.72307,89.097477 125.71875,88.40625 C 125.71443,87.715023 125.30179,86.760833 124.8125,86.28125 C 124.32321,85.801667 123.40641,85.436669 122.71875,85.4375 C 122.03109,85.438331 121.04998,85.821337 120.5625,86.3125 z M 29.90625,99.25 C 29.416938,99.741821 29.025121,100.7107 29.03125,101.40625 C 29.037379,102.1018 29.448209,103.05167 29.9375,103.53125 C 30.426791,104.01083 31.347935,104.37757 32.03125,104.375 C 32.714565,104.37243 33.666938,103.99182 34.15625,103.5 C 34.645562,103.00818 35.037379,102.0393 35.03125,101.34375 C 35.025121,100.6482 34.614291,99.698333 34.125,99.21875 C 33.635709,98.739167 32.714565,98.372427 32.03125,98.375 C 31.347935,98.377573 30.395562,98.758179 29.90625,99.25 z M 105.8125,99.28125 C 105.325,99.76875 104.93318,100.71502 104.9375,101.40625 C 104.94182,102.09748 105.35627,103.0473 105.84375,103.53125 C 106.33123,104.0152 107.25059,104.40875 107.9375,104.40625 C 108.62441,104.40375 109.57679,103.99183 110.0625,103.5 C 110.54821,103.00817 110.94182,102.06623 110.9375,101.375 C 110.93318,100.68377 110.52054,99.729583 110.03125,99.25 C 109.54196,98.770417 108.62081,98.403677 107.9375,98.40625 C 107.25419,98.408823 106.3,98.79375 105.8125,99.28125 z M 48.25,106.5625 C 47.764285,107.05433 47.370677,107.99627 47.375,108.6875 C 47.379323,109.37873 47.791959,110.33292 48.28125,110.8125 C 48.770541,111.29208 49.691685,111.65882 50.375,111.65625 C 51.058315,111.65368 52.0125,111.26875 52.5,110.78125 C 52.9875,110.29375 53.379323,109.34748 53.375,108.65625 C 53.370677,107.96502 52.956231,107.0152 52.46875,106.53125 C 51.981269,106.0473 51.061907,105.65375 50.375,105.65625 C 49.688093,105.65875 48.735715,106.07067 48.25,106.5625 z M 87.46875,106.5625 C 86.98125,107.05 86.589427,107.99627 86.59375,108.6875 C 86.598073,109.37873 87.012519,110.32855 87.5,110.8125 C 87.987481,111.29645 88.906843,111.69 89.59375,111.6875 C 90.280657,111.685 91.233035,111.27308 91.71875,110.78125 C 92.204465,110.28942 92.598073,109.34748 92.59375,108.65625 C 92.589427,107.96502 92.176791,107.01083 91.6875,106.53125 C 91.198209,106.05167 90.277065,105.68493 89.59375,105.6875 C 88.910435,105.69007 87.95625,106.075 87.46875,106.5625 z M 67.84375,108.875 C 67.354438,109.36682 66.962621,110.3357 66.96875,111.03125 C 66.974879,111.7268 67.385709,112.67667 67.875,113.15625 C 68.364291,113.63583 69.281092,114.00083 69.96875,114 C 70.656408,113.99917 71.63568,113.62048 72.125,113.125 C 72.61432,112.62952 72.979202,111.66252 72.96875,110.96875 C 72.958298,110.27498 72.551791,109.32333 72.0625,108.84375 C 71.573209,108.36417 70.652065,107.99743 69.96875,108 C 69.285435,108.00257 68.333062,108.38318 67.84375,108.875 z" id="path2604" style="fill:#000000;fill-opacity:1;stroke:none;stroke-width:6;stroke-linecap:round;stroke-linejoin:round;stroke-dasharray:0, 19.8;stroke-dashoffset:0;stroke-opacity:1"/>
  <path d="M 70,40 L 70,100 M 20,70 L 120,70 M 100,50 L 100,90 M 40,50 L 40,90" id="path3393" style="fill:none;stroke:#000000;stroke-width:6px;stroke-linecap:round;stroke-linejoin:round"/>
</svg>